# xmcd
#
# Track frame offsets:
#	150
#	16272
#	29295
#	44507
#	55507
#	66957
#	78035
#	93610
#	105207
#
# Disc length: 1580 seconds
#
# Revision: 0
# Processed by: cddbd v1.5.2PL0 Copyright (c) Steve Scherf et al.
# Submitted via: EasyCDDAExtractor 2010.6.0.0
#
DISCID=61062a09
DTITLE=Montgomery Melba - Do You Know Where Your Man Is
DYEAR=1900
DGENRE=
TTITLE0=Do You Know Where Your Man Is
TTITLE1=We Must Be Crazy
TTITLE2=It All Comes With Goodbye
TTITLE3=Your Heart Turned Left (And I Was On The Right)
TTITLE4=Are You Sincere
TTITLE5=Heartaches By The Number
TTITLE6=Goin' Quietly Crazy
TTITLE7=You're On My Heart Again
TTITLE8=You Got Me Where I Wanna Be
EXTD=
EXTT0=
EXTT1=
EXTT2=
EXTT3=
EXTT4=
EXTT5=
EXTT6=
EXTT7=
EXTT8=
PLAYORDER=
